<svg id="Capa_1" data-name="Capa 1" xmlns="http://www.w3.org/2000/svg" viewBox="0 0 1064 800"><defs><style>.cls-1{font-size:196.18px;stroke:#000;stroke-miterlimit:10;stroke-width:0.25px;font-family:Garamond;}.cls-2{letter-spacing:-0.08em;}.cls-3{letter-spacing:-0.03em;}.cls-4{font-size:98.09px;font-family:CourierNewPSMT, Courier New;}.cls-5{fill:#7ccfdd;}.cls-6{fill:#fff;}.cls-7{font-size:38px;font-family:MaiandraGD-Regular, Maiandra GD;}.cls-8{letter-spacing:-0.05em;}.cls-9{letter-spacing:-0.02em;}</style></defs><title>Mesa de trabajo 1</title><text class="cls-1" transform="translate(201.41 618.3)"><tspan class="cls-2">W</tspan><tspan class="cls-3" x="157.58" y="0">A</tspan><tspan x="284.41" y="0">TER </tspan></text><text class="cls-4" transform="translate(372.03 472.54)">FRESH</text><path class="cls-5" d="M646.56,231.4a111,111,0,0,1-222,0c0-61.31,111-209.4,111-209.4s111,148.09,111,209.4"/><path class="cls-6" d="M584.5,207.63a32.34,32.34,0,0,0-10.24-2c-15.19-.44-26.93,5.94-38.06,16.06.78-.72-16.58-13.11-18.27-14-17.65-9.14-40.61-2.33-50.06,15.23-8.81,16.4-4.26,37.14,7.2,51,9.51,11.5,22.66,19.44,36.23,25.64,6.39,2.92,13,5.54,20,6.16,8.55.76,17.09-1.51,25.15-4.46,15.6-5.71,30.61-14.41,40.6-27.68s14.14-31.69,7.58-47a35.89,35.89,0,0,0-20.16-19"/><path class="cls-5" d="M540.22,350.07c114.5,0,217.51-49.1,289.21-127.37C775.74,327.91,666.44,400,540.22,400S304.7,327.91,251,222.7a391,391,0,0,0,289.2,127.37"/><text class="cls-7" transform="translate(253.98 682.25)"><tspan xml:space="preserve">El Emprendimiento  Del </tspan><tspan class="cls-8" x="406.77" y="0">F</tspan><tspan x="424.83" y="0">utu</tspan><tspan class="cls-9" x="478.9" y="0">r</tspan><tspan x="491.77" y="0">o ...</tspan></text></svg>